<?xml version="1.0" standalone="no"?>
<!DOCTYPE svg PUBLIC "-//W3C//DTD SVG 1.1//EN" "http://www.w3.org/Graphics/SVG/1.1/DTD/svg11.dtd" >
<svg xmlns="http://www.w3.org/2000/svg">
<metadata>Generated by IcoMoon</metadata>
<defs>
<font id="vicon" horiz-adv-x="1024">
<font-face units-per-em="1024" ascent="960" descent="-64" />
<missing-glyph horiz-adv-x="1024" />
<glyph unicode="&#x20;" horiz-adv-x="512" d="" />
<glyph unicode="&#xe900;" glyph-name="icon_bell" d="M868.037 175.458l-34.658 363.914c0 171.717-135.483 310.351-304.049 319.803v100.825h-36.234v-100.825c-168.566-9.452-302.474-149.662-302.474-318.228l-34.658-365.489h-135.483v-34.658h270.966c9.452-113.428 103.975-204.8 220.554-204.8s212.677 89.797 220.554 204.8h270.966v36.234h-135.483zM512-27.766c-96.098 0-176.443 74.043-185.895 168.566h371.791c-9.452-94.523-89.797-168.566-185.895-168.566zM198.498 181.76l33.083 356.037c0 154.388 126.031 280.418 280.418 280.418s280.418-126.031 280.418-280.418l33.083-356.037h-627.003z" />
<glyph unicode="&#xe901;" glyph-name="icon_chat" d="M894.818 960h-765.637c-70.892 0-129.182-58.289-129.182-130.757v-497.822c0-59.865 40.96-110.277 96.098-126.031v-269.391l299.323 264.665h500.972c70.892 0 129.182 58.289 129.182 130.757v497.822c-1.575 72.468-59.865 130.757-130.757 130.757zM133.908 24.222v178.018h200.074l-200.074-178.018zM984.615 331.422c0-50.412-40.96-91.372-89.797-91.372h-765.637c-48.837 0-89.797 40.96-89.797 91.372v497.822c0 50.412 40.96 91.372 89.797 91.372h765.637c48.837 0 89.797-40.96 89.797-91.372v-497.822zM157.538 759.926h660.086v-69.317h-660.086v69.317zM157.538 594.511h660.086v-69.317h-660.086v69.317zM157.538 438.548h444.258v-69.317h-444.258v69.317z" />
<glyph unicode="&#xe902;" glyph-name="icon_circle-percent" d="M619.126 671.705l-294.597-452.135h77.194l294.597 452.135zM448.985 474.782c20.48 22.055 31.508 51.988 31.508 88.222s-9.452 64.591-28.357 83.495c-18.905 20.48-45.686 29.932-78.769 29.932-34.658 0-63.015-11.028-83.495-33.083s-31.508-51.988-31.508-89.797c0-34.658 9.452-61.44 29.932-81.92 18.905-20.48 45.686-29.932 77.194-29.932 36.234 1.575 63.015 11.028 83.495 33.083zM326.105 558.277c0 42.535 15.754 64.591 45.686 64.591 28.357 0 42.535-20.48 42.535-61.44 0-42.535-14.178-63.015-44.111-63.015s-44.111 20.48-44.111 59.865zM655.36 449.575c-34.658 0-63.015-11.028-83.495-33.083s-31.508-51.988-31.508-89.797c0-34.658 9.452-61.44 29.932-81.92 18.905-20.48 45.686-29.932 77.194-29.932 34.658 0 63.015 11.028 83.495 33.083s31.508 51.988 31.508 88.222c0 36.234-9.452 64.591-28.357 83.495s-44.111 29.932-78.769 29.932zM652.209 268.406c-29.932 0-44.111 20.48-44.111 59.865 0 42.535 15.754 64.591 45.686 64.591 12.603 0 23.631-4.726 31.508-15.754s12.603-25.206 12.603-45.686c-1.575-40.96-15.754-63.015-45.686-63.015zM512 960c-281.994 0-512-230.006-512-512s230.006-512 512-512c281.994 0 512 230.006 512 512s-230.006 512-512 512zM512-26.191c-261.514 0-474.191 212.677-474.191 474.191s212.677 474.191 474.191 474.191c261.514 0 474.191-212.677 474.191-474.191s-212.677-474.191-474.191-474.191z" />
<glyph unicode="&#xe903;" glyph-name="icon_compare" d="M381.243-64l209.526 185.895-209.526 184.32zM277.268 101.415c0 0-20.48-1.575-40.96 15.754-23.631 20.48-37.809 61.44-39.385 115.003v396.997c77.194 9.452 137.058 75.618 137.058 154.388 0 86.646-70.892 155.963-155.963 155.963-86.646 0-155.963-70.892-155.963-155.963 0-78.769 59.865-144.935 137.058-154.388v-395.422c1.575-67.742 18.905-115.003 51.988-144.935 26.782-23.631 55.138-26.782 67.742-26.782 1.575 0 3.151 0 3.151 0h102.4v39.385h-107.126zM59.865 783.557c0 64.591 51.988 116.578 116.578 116.578s116.578-51.988 116.578-116.578c0-64.591-51.988-116.578-116.578-116.578s-116.578 51.988-116.578 116.578zM642.757 589.785v370.215l-209.526-185.895zM868.037 266.831v395.422c-1.575 67.742-18.905 115.003-51.988 144.935-31.508 26.782-64.591 26.782-70.892 26.782h-102.4v-39.385h103.975c0 0 22.055 1.575 40.96-15.754 23.631-20.48 37.809-61.44 39.385-115.003v-396.997c-77.194-9.452-137.058-75.618-137.058-154.388 0-86.646 70.892-155.963 155.963-155.963 86.646 0 155.963 70.892 155.963 155.963 1.575 78.769-58.289 144.935-133.908 154.388zM847.557-4.135c-64.591 0-116.578 51.988-116.578 116.578s51.988 116.578 116.578 116.578c64.591 0 116.578-51.988 116.578-116.578s-51.988-116.578-116.578-116.578z" />
<glyph unicode="&#xe904;" glyph-name="icon_filter" d="M1019.274 890.683c-20.48 50.412-103.975 51.988-113.428 51.988h-792.418c-56.714-6.302-92.948-25.206-107.126-58.289-25.206-59.865 31.508-133.908 37.809-141.785l270.966-270.966 3.151-319.803h39.385l-4.726 335.557-278.843 278.843c-12.603 17.329-45.686 69.317-31.508 102.4 7.877 18.905 33.083 31.508 74.043 34.658h790.843c22.055 0 67.742-6.302 77.194-28.357 3.151-9.452 4.726-36.234-61.44-99.249l-310.351-300.898 4.726-523.028h39.385l-4.726 505.698 297.748 289.871c61.44 59.865 85.071 105.551 69.317 143.36z" />
<glyph unicode="&#xe905;" glyph-name="icon_folder" d="M901.12 758.351v89.797h-901.12v-800.295h927.902l96.098 710.498h-122.88zM381.243 140.8h-291.446v256.788h291.446v-256.788zM841.255 140.8h-326.105v63.015h327.68v-63.015zM841.255 236.898h-326.105v63.015h327.68v-63.015zM841.255 334.572h-326.105v63.015h327.68v-63.015zM853.858 498.412h-764.062v89.797h764.062v-89.797z" />
<glyph unicode="&#xe906;" glyph-name="icon_gift" d="M957.834 696.911h-230.006c9.452 9.452 17.329 20.48 23.631 31.508 3.151 7.877 36.234 77.194 6.302 133.908-17.329 33.083-50.412 51.988-99.249 58.289h-3.151c0 0 0 0 0 0-9.452 0-92.948-1.575-138.634-53.563-22.055 20.48-55.138 44.111-108.702 53.563-6.302 1.575-61.44 9.452-103.975-25.206-28.357-23.631-42.535-58.289-44.111-103.975 0-3.151 0-55.138 63.015-94.523h-256.788c-34.658 0-61.44-31.508-61.44-70.892v-53.563c0-37.809 28.357-69.317 61.44-69.317h9.452c-6.302-12.603-11.028-28.357-11.028-44.111v-403.298c0-51.988 42.535-94.523 94.523-94.523h715.225c51.988 0 94.523 42.535 94.523 94.523v403.298c0 15.754-3.151 29.932-11.028 44.111 33.083 0 61.44 31.508 61.44 69.317v53.563c0 39.385-28.357 70.892-61.44 70.892zM548.234 797.735c1.575 11.028 6.302 20.48 12.603 28.357 23.631 25.206 72.468 31.508 91.372 33.083 25.206-3.151 42.535-12.603 50.412-25.206 12.603-23.631-1.575-63.015-7.877-75.618-23.631-47.262-94.523-51.988-146.511-48.837v88.222zM341.858 846.572c20.48 17.329 51.988 12.603 51.988 12.603 59.865-11.028 83.495-42.535 91.372-53.563v-3.151c-1.575-9.452-1.575-18.905 0-28.357v-55.138c-159.114 9.452-163.84 72.468-163.84 72.468 0 25.206 6.302 44.111 20.48 55.138zM956.258 627.594v-53.563c0-3.151-1.575-6.302-1.575-7.877h-408.025v67.742h406.449c1.575-1.575 3.151-3.151 3.151-6.302zM67.742 574.031v53.563c0 3.151 1.575 6.302 1.575 7.877h414.326v-67.742h-414.326c0 0-1.575 1.575-1.575 6.302zM127.606 55.729v403.298c0 17.329 14.178 31.508 31.508 31.508h324.529l-3.151-466.314h-321.378c-17.329 0-31.508 14.178-31.508 31.508zM905.846 55.729c0-17.329-14.178-31.508-31.508-31.508h-330.831l3.151 466.314h327.68c17.329 0 31.508-14.178 31.508-31.508v-403.298z" />
<glyph unicode="&#xe907;" glyph-name="icon_headphone" d="M957.834 413.342c-14.178 168.566-67.742 296.172-162.265 379.668-122.88 110.277-269.391 99.249-274.117 99.249-349.735-26.782-417.477-337.132-431.655-469.465-45.686-11.028-80.345-53.563-80.345-102.4v-206.375c0-58.289 47.262-107.126 107.126-107.126 58.289 0 107.126 47.262 107.126 107.126v206.375c0 45.686-29.932 85.071-69.317 99.249 11.028 118.154 69.317 385.969 374.942 409.6 1.575 0 124.455 9.452 228.431-83.495 78.769-69.317 126.031-179.594 140.209-324.529-48.837-9.452-86.646-51.988-86.646-103.975v-206.375c0-58.289 47.262-107.126 107.126-107.126 58.289 0 107.126 47.262 107.126 107.126v206.375c-6.302 42.535-31.508 80.345-67.742 96.098zM159.114 114.018c0-23.631-18.905-44.111-44.111-44.111-23.631 0-44.111 18.905-44.111 44.111v206.375c0 23.631 18.905 44.111 44.111 44.111 23.631 0 44.111-18.905 44.111-44.111v-206.375zM956.258 110.868c0-23.631-18.905-44.111-44.111-44.111-23.631 0-44.111 18.905-44.111 44.111v206.375c0 23.631 18.905 44.111 44.111 44.111 23.631 0 44.111-18.905 44.111-44.111v-206.375z" />
<glyph unicode="&#xe908;" glyph-name="icon_home" d="M877.489 399.163c-9.452 0-17.329-7.877-17.329-17.329v-401.723h-223.705v291.446c0 9.452-7.877 17.329-17.329 17.329h-214.252c-9.452 0-17.329-7.877-17.329-17.329v-291.446h-223.705v423.778c0 9.452-7.877 17.329-17.329 17.329s-17.329-7.877-17.329-17.329v-442.683c0-9.452 7.877-17.329 17.329-17.329h258.363c9.452 0 17.329 7.877 17.329 17.329v291.446h179.594v-291.446c0-9.452 7.877-17.329 17.329-17.329h258.363c9.452 0 17.329 7.877 17.329 17.329v420.628c0 9.452-7.877 17.329-17.329 17.329zM1019.274 438.548l-494.671 508.849c-3.151 3.151-7.877 4.726-12.603 4.726s-9.452-1.575-12.603-4.726l-494.671-508.849c-3.151-3.151-4.726-7.877-4.726-12.603s1.575-9.452 4.726-12.603c3.151-3.151 17.329-17.329 31.508-4.726l475.766 483.643 478.917-485.218c0 0 12.603-9.452 28.357 6.302 1.575 1.575 4.726 7.877 4.726 12.603s-1.575 9.452-4.726 12.603z" />
<glyph unicode="&#xe909;" glyph-name="icon_image-thumbnail" d="M0 818.215v-740.431h1024v740.431h-1024zM984.615 117.169h-945.231v661.662h945.231v-661.662zM882.215 608.689c0-54.814-44.435-99.249-99.249-99.249s-99.249 44.435-99.249 99.249c0 54.814 44.435 99.249 99.249 99.249s99.249-44.435 99.249-99.249zM817.625 353.477c-70.892 110.277-127.606-20.48-127.606-20.48-105.551-29.932-174.868 86.646-174.868 86.646l-105.551 143.36c-110.277 102.4-193.772-121.305-193.772-121.305-37.809-110.277-66.166-263.089-66.166-263.089h749.883l-81.92 174.868z" />
<glyph unicode="&#xe90a;" glyph-name="icon_label" d="M792.418 819.791c-50.412 0-89.797-39.385-89.797-89.797s39.385-89.797 89.797-89.797c50.412 0 89.797 39.385 89.797 89.797s-39.385 89.797-89.797 89.797zM792.418 689.034c-23.631 0-42.535 18.905-42.535 42.535s18.905 42.535 42.535 42.535c23.631 0 42.535-18.905 42.535-42.535s-18.905-42.535-42.535-42.535zM589.194 610.265c-3.151 3.151-7.877 4.726-12.603 4.726s-9.452-1.575-12.603-4.726l-326.105-326.105c-6.302-6.302-6.302-18.905-1.575-25.206 4.726-4.726 9.452-6.302 14.178-6.302 6.302 0 9.452 1.575 12.603 4.726l324.529 324.529c7.877 9.452 7.877 20.48 1.575 28.357zM1017.698 879.655c-1.575 44.111-23.631 70.892-61.44 74.043l-288.295 6.302c-50.412 0-81.92-20.48-97.674-33.083l-551.385-554.535c-12.603-12.603-18.905-28.357-18.905-45.686s6.302-33.083 18.905-45.686l326.105-326.105c12.603-12.603 28.357-18.905 45.686-18.905s33.083 6.302 45.686 18.905l272.542 270.966c3.151 3.151 4.726 4.726 7.877 9.452l264.665 264.665c15.754 18.905 44.111 59.865 42.535 113.428l-6.302 266.24zM924.751 518.892l-242.609-239.458v-1.575l-3.151-1.575-1.575-3.151-247.335-242.609c-4.726-4.726-12.603-7.877-20.48-7.877s-14.178 3.151-20.48 7.877l-294.597 291.446c-4.726 4.726-7.877 12.603-7.877 18.905 0 7.877 3.151 14.178 7.877 18.905l502.548 496.246c12.603 9.452 34.658 22.055 66.166 22.055l259.938-4.726c17.329-1.575 26.782-14.178 28.357-36.234l4.726-239.458c-1.575-42.535-23.631-70.892-31.508-78.769zM597.071 427.52c-4.726 0-9.452-1.575-12.603-4.726l-223.705-237.883c-6.302-6.302-6.302-18.905-1.575-25.206 4.726-4.726 9.452-6.302 12.603-6.302 6.302 0 9.452 1.575 12.603 4.726l223.705 237.883c6.302 6.302 6.302 18.905 0 25.206-1.575 4.726-6.302 6.302-11.028 6.302z" />
<glyph unicode="&#xe90b;" glyph-name="icon_laptop" d="M456.862 665.403h107.126c11.028 0 18.905 9.452 18.905 20.48s-7.877 20.48-18.905 20.48h-107.126c-11.028 0-18.905-9.452-18.905-20.48s7.877-20.48 18.905-20.48zM959.409 244.775h-20.48c1.575 9.452 3.151 18.905 3.151 29.932v417.477c0 11.028 1.575 59.865-29.932 94.523-14.178 14.178-39.385 31.508-80.345 29.932l-617.551-3.151c-11.028 1.575-64.591 3.151-100.825-29.932-14.178-12.603-31.508-37.809-31.508-77.194v-419.052c0-4.726 0-23.631 6.302-42.535h-23.631c-34.658 0-61.44-28.357-61.44-63.015v-44.111c0-34.658 28.357-63.015 61.44-63.015h896.394c34.658 0 61.44 28.357 61.44 63.015v44.111c0 34.658-28.357 63.015-63.015 63.015zM144.935 284.16v420.628c0 14.178 3.151 23.631 11.028 31.508 12.603 12.603 36.234 14.178 48.837 14.178 1.575 0 4.726 0 6.302 0h1.575l622.277 3.151c22.055 0 29.932-7.877 33.083-11.028 12.603-14.178 14.178-39.385 12.603-47.262v-420.628c0-12.603-1.575-20.48-6.302-23.631s-12.603-3.151-15.754-3.151h-685.292c-14.178 0-18.905 4.726-20.48 6.302-7.877 9.452-9.452 25.206-7.877 29.932zM66.166 137.649l-1.575 44.111h894.818v-44.111h-893.243z" />
<glyph unicode="&#xe90c;" glyph-name="icon_list" d="M760.911 896.985v63.015h-497.822v-63.015h-176.443v-960.985h850.708v960.985h-176.443zM294.597 896.985v31.508h434.806v-146.511c0-1.575 0-45.686-67.742-51.988h-315.077c-4.726 0-51.988 1.575-51.988 48.837v118.154zM126.031 857.6h137.058v-78.769c0-63.015 55.138-80.345 83.495-80.345h316.652c77.194 6.302 97.674 56.714 97.674 83.495v75.618h137.058v-882.215h-771.938zM253.637 575.606h491.52v-42.535h-491.52v42.535zM253.637 422.794h491.52v-42.535h-491.52v42.535zM266.24 268.406h491.52v-42.535h-491.52v42.535z" />
<glyph unicode="&#xe90d;" glyph-name="icon_list2" d="M203.225 958.425c-80.345 0-144.935-64.591-144.935-144.935s64.591-144.935 144.935-144.935c80.345 0 144.935 64.591 144.935 144.935 0 78.769-64.591 144.935-144.935 144.935zM203.225 706.363c-58.289 0-105.551 47.262-105.551 105.551s47.262 105.551 105.551 105.551c58.289 0 105.551-47.262 105.551-105.551s-47.262-105.551-105.551-105.551zM196.923 592.935c-80.345 0-144.935-64.591-144.935-144.935s64.591-144.935 144.935-144.935c80.345 0 144.935 64.591 144.935 144.935s-64.591 144.935-144.935 144.935zM196.923 340.874c-58.289 0-105.551 47.262-105.551 105.551s47.262 105.551 105.551 105.551c58.289 0 105.551-47.262 105.551-105.551 0-56.714-47.262-105.551-105.551-105.551zM196.923 224.295c-80.345 0-144.935-64.591-144.935-144.935s64.591-144.935 144.935-144.935c80.345 0 144.935 64.591 144.935 144.935s-64.591 144.935-144.935 144.935zM196.923-26.191c-58.289 0-105.551 47.262-105.551 105.551s47.262 105.551 105.551 105.551c58.289 0 105.551-47.262 105.551-105.551s-47.262-105.551-105.551-105.551zM460.012 794.585h513.575v-39.385h-513.575v39.385zM460.012 602.388h513.575v-39.385h-513.575v39.385zM460.012 389.711h513.575v-39.385h-513.575v39.385zM453.711 13.194h513.575v-39.385h-513.575v39.385zM460.012 936.369h343.434v-39.385h-343.434v39.385zM453.711 205.391h343.434v-39.385h-343.434v39.385z" />
<glyph unicode="&#xe90e;" glyph-name="icon_list3" d="M748.308 911.163v48.837h-472.615v-48.837h-192.197v-975.163h858.585v975.163h-193.772zM901.12-24.615h-778.24v896.394h154.388v-80.345c0-64.591 67.742-64.591 67.742-64.591h318.228c85.071 6.302 85.071 67.742 85.071 67.742v77.194h154.388v-896.394zM263.089 574.031h507.274v-42.535h-507.274v42.535zM264.665 407.040h505.698v-48.837h-505.698v48.837zM269.391 227.446h499.397v-47.262h-499.397v47.262z" />
<glyph unicode="&#xe90f;" glyph-name="icon_magnify" d="M1017.698-27.766l-332.406 330.831 11.028 12.603c59.865 72.468 91.372 160.689 91.372 252.062 0 215.828-176.443 392.271-392.271 392.271-217.403 0-392.271-176.443-392.271-392.271s176.443-392.271 392.271-392.271c92.948 0 179.594 31.508 250.486 91.372l6.302 4.726 329.255-327.68h-1.575c22.055-14.178 34.658-1.575 34.658-1.575 7.877 6.302 9.452 22.055 3.151 29.932zM395.422 221.145c-190.622 0-346.585 155.963-346.585 346.585s154.388 346.585 346.585 346.585c190.622 0 346.585-154.388 346.585-346.585-1.575-190.622-155.963-346.585-346.585-346.585z" />
<glyph unicode="&#xe910;" glyph-name="icon_paper-check" d="M545.083 960h-412.751v-1024h759.335v678.991l-346.585 345.009zM546.658 901.711l302.474-300.898h-220.554c0 0-23.631-1.575-44.111 15.754-22.055 17.329-34.658 48.837-37.809 91.372v193.772zM171.717-24.615v945.231h343.434v-214.252c4.726-53.563 20.48-91.372 48.837-115.003 23.631-20.48 50.412-22.055 61.44-22.055 1.575 0 3.151 0 4.726 0h220.554v-595.495h-678.991zM477.342 188.062l-124.455 119.729-20.48-23.631 148.086-143.36 209.526 277.268-25.206 18.905z" />
<glyph unicode="&#xe911;" glyph-name="icon_paper-pen" d="M994.068 377.108l-209.526 215.828 122.88 111.852c25.206 25.206 37.809 53.563 36.234 81.92-1.575 44.111-36.234 72.468-36.234 72.468-63.015 55.138-122.88 23.631-146.511 0l-119.729-119.729-214.252 220.554-382.818-335.557 11.028-7.877v-192.197h7.877l135.483-130.757-89.797-91.372-78.769-182.745 184.32 55.138 108.702 99.249 245.76-237.883 425.354 441.108zM85.071 68.332l50.412 116.578 1.575 1.575 70.892-75.618-7.877-6.302-115.003-36.234zM157.538 206.966l400.148 403.298 97.674-92.948-426.929-387.545-70.892 77.194zM178.018 526.769l-83.495-74.043v133.908l83.495-59.865zM239.458 529.92l-133.908 96.098 318.228 280.418 190.622-195.348-389.12-390.695-105.551 102.4 119.729 107.126zM886.942 835.545c0 0 25.206-22.055 25.206-50.412 1.575-18.905-7.877-39.385-26.782-58.289l-207.951-189.046-37.809 36.234 189.046 171.717-20.48 23.631-190.622-173.292-37.809 36.234 203.225 203.225c1.575 3.151 47.262 48.837 103.975 0zM756.185 566.154l184.32-190.622-373.366-384.394-215.828 207.951 404.874 367.065zM75.618 626.018v0 0zM75.618 424.369v0 0z" />
<glyph unicode="&#xe912;" glyph-name="icon_people" d="M1024 73.058c0 12.603 0 25.206 0 36.234 0 25.206-14.178 45.686-37.809 55.138l-34.658 14.178c-40.96 15.754-81.92 33.083-121.305 50.412-61.44 26.782-105.551 48.837-146.511 74.043-26.782 17.329-36.234 37.809-31.508 64.591 1.575 4.726 1.575 9.452 4.726 12.603 26.782 31.508 47.262 69.317 63.015 115.003 1.575 6.302 6.302 12.603 11.028 17.329 28.357 29.932 34.658 78.769 17.329 116.578-3.151 7.877-6.302 17.329-6.302 26.782 0 15.754 0 29.932 0 45.686 0 26.782 0 55.138-3.151 81.92-7.877 72.468-45.686 124.455-111.852 152.812-34.658 15.754-72.468 23.631-110.277 23.631-20.48 0-44.111-1.575-66.166-6.302-100.825-18.905-162.265-91.372-166.991-192.197-1.575-20.48 0-40.96 0-63.015 0-14.178 0-29.932 0-44.111 0-7.877-1.575-15.754-4.726-22.055-18.905-37.809-12.603-86.646 15.754-118.154 4.726-4.726 7.877-11.028 11.028-17.329 15.754-44.111 33.083-77.194 55.138-105.551 9.452-11.028 14.178-23.631 14.178-39.385 0-17.329-6.302-28.357-18.905-37.809l-11.028-7.877c-17.329-11.028-36.234-23.631-55.138-33.083-75.618-37.809-155.963-69.317-234.732-100.825l-14.178-4.726c-11.028-4.726-18.905-11.028-25.206-17.329-4.726-4.726-7.877-12.603-11.028-18.905-1.575-4.726-3.151-6.302-4.726-11.028v-140.209c0-1.575 1.575-1.575 1.575-3.151 9.452-26.782 28.357-40.96 56.714-40.96h392.271c171.717 0 343.434 0 515.151 0v0c14.178 0 29.932 7.877 40.96 18.905s17.329 25.206 15.754 39.385c0 26.782 1.575 55.138 1.575 78.769zM979.889 68.332c0-23.631 0-47.262 0-70.892 0-15.754-6.302-17.329-20.48-17.329h-893.243c-18.905 0-22.055 3.151-22.055 22.055v29.932c0 28.357 0 55.138 0 83.495 0 11.028 4.726 17.329 15.754 22.055 86.646 34.658 165.415 66.166 241.034 107.126 22.055 12.603 44.111 26.782 64.591 39.385l11.028 7.877c6.302 4.726 12.603 11.028 17.329 15.754l3.151 3.151c7.877 7.877 12.603 18.905 12.603 33.083 1.575 33.083-4.726 55.138-23.631 75.618-26.782 26.782-37.809 64.591-48.837 96.098-1.575 6.302-7.877 14.178-12.603 18.905-26.782 22.055-29.932 53.563-11.028 81.92 6.302 7.877 7.877 15.754 7.877 26.782 0 37.809 0 74.043 0 111.852 0 25.206 4.726 48.837 14.178 70.892 17.329 40.96 51.988 69.317 99.249 80.345 25.206 6.302 51.988 9.452 77.194 9.452 26.782 0 53.563-3.151 80.345-11.028 63.015-17.329 102.4-64.591 107.126-127.606 3.151-34.658 3.151-69.317 3.151-102.4 0-11.028 0-22.055 0-34.658 0-9.452 3.151-17.329 7.877-25.206 20.48-26.782 15.754-59.865-11.028-81.92-6.302-4.726-9.452-11.028-12.603-17.329-15.754-48.837-36.234-88.222-66.166-121.305-3.151-3.151-4.726-9.452-6.302-15.754 0-11.028 0-23.631 0-34.658v-9.452c0-14.178 7.877-23.631 15.754-28.357l6.302-4.726c20.48-15.754 39.385-31.508 61.44-44.111 74.043-44.111 152.812-75.618 231.582-107.126 12.603-4.726 26.782-11.028 39.385-15.754 7.877-3.151 12.603-9.452 12.603-17.329v-48.837z" />
<glyph unicode="&#xe913;" glyph-name="icon_phone" d="M475.766 700.062l-29.932 218.978c0 0-1.575 44.111-81.92 39.385l40.96-327.68c0 1.575 77.194 6.302 70.892 69.317zM502.548 288.886c-83.495 99.249-129.182 281.994-129.182 281.994-6.302 26.782 11.028 48.837 11.028 48.837l-40.96 340.283c-162.265-29.932-165.415-218.978-165.415-218.978-14.178-187.471 83.495-403.298 83.495-403.298 85.071-201.649 220.554-302.474 220.554-302.474 223.705-195.348 329.255-39.385 329.255-39.385l-234.732 241.034c-34.658-12.603-74.043 51.988-74.043 51.988zM842.831 88.812l-149.662 165.415c0 0-40.96 47.262-100.825-9.452l231.582-236.308c-1.575 1.575 36.234 34.658 18.905 80.345z" />
<glyph unicode="&#xe914;" glyph-name="icon_sim" d="M748.308 613.415h-444.258c-14.178 0-26.782-12.603-26.782-26.782v-508.849c0-15.754 12.603-26.782 26.782-26.782h445.834c14.178 0 26.782 12.603 26.782 26.782v508.849c-1.575 14.178-12.603 26.782-28.357 26.782zM702.622 129.772h-352.886v404.874h352.886v-404.874zM918.449 448c0 148.086 0 294.597 0 442.683 0 39.385-28.357 69.317-67.742 69.317-182.745 0-367.065 0-549.809 0-28.357 0-50.412-11.028-67.742-33.083-34.658-42.535-69.317-85.071-103.975-127.606-14.178-17.329-22.055-37.809-22.055-61.44 0-244.185 0-488.369 0-732.554 0-42.535 28.357-70.892 70.892-70.892 225.28 0 450.56 0 675.84 0 37.809 0 66.166 29.932 66.166 69.317-1.575 149.662-1.575 296.172-1.575 444.258v0zM855.434 856.025c0-135.483 0-272.542 0-408.025v0c0-110.277 0-220.554 0-330.831 0-28.357 0-58.289 0-86.646 0-15.754-7.877-23.631-23.631-23.631-4.726 0-9.452 0-14.178 0-154.388 0-308.775 0-463.163 0-51.988 0-105.551 0-157.538 0-18.905 0-26.782 7.877-26.782 26.782 0 6.302 0 11.028 0 17.329 0 223.705 0 445.834 0 669.538 0 12.603 3.151 23.631 12.603 33.083 31.508 37.809 64.591 77.194 96.098 116.578 11.028 14.178 25.206 20.48 42.535 20.48 111.852 0 225.28 0 337.132 0 58.289 0 115.003 0 173.292 0 18.905 0 25.206-7.877 25.206-25.206-1.575-4.726-1.575-6.302-1.575-9.452z" />
<glyph unicode="&#xe915;" glyph-name="icon_smartphone" d="M556.111 76.209c0-26.102-21.16-47.262-47.262-47.262s-47.262 21.16-47.262 47.262c0 26.102 21.16 47.262 47.262 47.262s47.262-21.16 47.262-47.262zM708.923 956.849h-376.517c-40.96-1.575-118.154-33.083-118.154-138.634v-789.268c-1.575-9.452-1.575-36.234 18.905-58.289 18.905-23.631 50.412-34.658 92.948-34.658h381.243c40.96 0 102.4 26.782 102.4 102.4v786.117c1.575 39.385-17.329 116.578-100.825 132.332zM277.268 714.24h467.889v-510.425h-467.889v510.425zM333.982 893.834h365.489c45.686-9.452 47.262-56.714 47.262-67.742v-48.837h-469.465v40.96c0 66.166 45.686 74.043 56.714 75.618zM705.772-0.985h-379.668c-22.055 0-37.809 4.726-44.111 11.028-4.726 4.726-4.726 11.028-4.726 11.028s0 0 0 0v119.729h467.889v-102.4c1.575-33.083-23.631-39.385-39.385-39.385zM412.751 805.612h198.498c17.329 0 31.508 11.028 31.508 25.206s-14.178 25.206-31.508 25.206h-198.498c-17.329 0-31.508-11.028-31.508-25.206 1.575-14.178 14.178-25.206 31.508-25.206z" />
<glyph unicode="&#xe916;" glyph-name="icon_tablet" d="M943.655 448c0-26.102-21.16-47.262-47.262-47.262s-47.262 21.16-47.262 47.262c0 26.102 21.16 47.262 47.262 47.262s47.262-21.16 47.262-47.262zM918.449 813.489h-787.692c-39.385 3.151-116.578-20.48-130.757-121.305v-474.191c1.575-48.837 33.083-141.785 138.634-141.785h789.268c1.575 0 4.726 0 7.877 0 14.178 0 31.508 4.726 45.686 15.754 26.782 22.055 39.385 59.865 39.385 116.578v483.643c0 42.535-22.055 121.305-102.4 121.305zM138.634 139.225c-67.742 0-74.043 66.166-75.618 80.345v464.738c11.028 64.591 56.714 66.166 66.166 66.166h66.166v-611.249h-56.714zM957.834 208.542c0-48.837-12.603-63.015-15.754-66.166s-4.726-3.151-6.302-3.151h-677.415v611.249h660.086c37.809 0 39.385-53.563 39.385-58.289v-483.643zM121.305 548.825c-14.178 0-25.206-11.028-25.206-25.206v-159.114c0-14.178 11.028-25.206 25.206-25.206s25.206 11.028 25.206 25.206v159.114c0 14.178-11.028 25.206-25.206 25.206z" />
<glyph unicode="&#xe917;" glyph-name="icon_video-play" d="M519.877 252.652c105.551 0 192.197 86.646 192.197 195.348 0 107.126-86.646 195.348-192.197 195.348s-192.197-86.646-192.197-195.348c0-107.126 86.646-195.348 192.197-195.348zM477.342 539.372l141.785-89.797-141.785-89.797v179.594zM0 818.215v-740.431h1024v740.431h-1024zM984.615 117.169h-945.231v661.662h945.231v-661.662z" />
<glyph unicode="&#xe918;" glyph-name="icon_vta" d="M270.966 881.231c-45.686 17.329-102.4 34.658-163.84 34.658-7.877 0-17.329 0-25.206-1.575-15.754-1.575-64.591-4.726-78.769-51.988l-1.575-4.726c-1.575-7.877-3.151-18.905 1.575-37.809 14.178-55.138 51.988-105.551 88.222-151.237 44.111-45.686 83.495-97.674 124.455-159.114 78.769-116.578 143.36-250.486 196.923-411.175 6.302-20.48 12.603-37.809 18.905-51.988 15.754-33.083 40.96-59.865 64.591-67.742 6.302-1.575 11.028-3.151 15.754-3.151 6.302 0 12.603 1.575 18.905 3.151 31.508 14.178 45.686 37.809 56.714 63.015 4.726 7.877 6.302 14.178 9.452 22.055 18.905 55.138 31.508 113.428 36.234 171.717 7.877 86.646 3.151 165.415-15.754 244.185-45.686 200.074-162.265 333.982-346.585 401.723zM584.468 288.886c0-50.412-6.302-100.825-17.329-151.237-1.575-6.302-3.151-11.028-4.726-17.329-9.452-23.631-15.754-37.809-29.932-45.686-1.575-1.575-4.726-1.575-6.302-1.575-3.151 0-4.726 0-6.302 0-12.603 3.151-29.932 22.055-40.96 44.111-6.302 11.028-11.028 25.206-17.329 42.535-53.563 143.36-115.003 263.089-189.046 365.489-37.809 55.138-74.043 100.825-113.428 140.209-31.508 36.234-61.44 75.618-75.618 119.729-4.726 11.028-4.726 17.329-3.151 25.206 3.151 11.028 9.452 25.206 40.96 29.932 6.302 1.575 12.603 1.575 18.905 1.575 47.262 3.151 91.372-7.877 127.606-20.48 146.511-47.262 244.185-155.963 291.446-321.378 18.905-67.742 26.782-135.483 25.206-211.102zM1022.425 844.997c-3.151 36.234-36.234 61.44-88.222 69.317-6.302 1.575-20.48 4.726-40.96 4.726h-4.726c-17.329 0-33.083-1.575-44.111-1.575h-6.302c-56.714-1.575-111.852-3.151-168.566-4.726-26.782 0-58.289-3.151-86.646-18.905-33.083-18.905-44.111-50.412-29.932-85.071 4.726-11.028 11.028-20.48 17.329-29.932l3.151-4.726c3.151-4.726 7.877-9.452 11.028-14.178 3.151-3.151 6.302-7.877 9.452-11.028 51.988-72.468 80.345-160.689 88.222-270.966v-3.151c1.575-14.178 1.575-28.357 7.877-42.535 6.302-18.905 17.329-31.508 33.083-37.809 6.302-3.151 12.603-3.151 20.48-3.151 9.452 0 18.905 3.151 28.357 6.302 20.48 11.028 37.809 26.782 51.988 48.837 26.782 42.535 67.742 113.428 107.126 184.32l33.083 58.289c6.302 11.028 11.028 20.48 17.329 31.508 17.329 28.357 36.234 59.865 42.535 99.249 0 7.877 0 17.329-1.575 25.206zM967.286 802.462c-4.726-29.932-18.905-53.563-34.658-78.769-4.726-9.452-11.028-18.905-15.754-26.782l-28.357-50.412c-33.083-56.714-69.317-122.88-92.948-159.114-9.452-14.178-20.48-25.206-34.658-33.083-3.151-1.575-7.877-3.151-14.178-3.151-3.151 0-4.726 0-7.877 1.575-6.302 3.151-11.028 9.452-14.178 17.329-3.151 9.452-4.726 18.905-4.726 29.932v3.151c-6.302 100.825-34.658 181.169-81.92 250.486-3.151 3.151-6.302 7.877-9.452 12.603-3.151 3.151-4.726 6.302-7.877 11.028l-3.151 4.726c-4.726 6.302-9.452 14.178-12.603 20.48-7.877 17.329-3.151 31.508 14.178 40.96 18.905 9.452 39.385 12.603 64.591 12.603 48.837 1.575 99.249 3.151 148.086 4.726h4.726c7.877 0 23.631 0 40.96 1.575h3.151c15.754 0 26.782-1.575 33.083-3.151 15.754-3.151 50.412-11.028 53.563-37.809 1.575-7.877 1.575-12.603 0-18.905z" />
</font>
</defs>
</svg>
